HIERARCHY
ROOT Hips
{
	OFFSET 0.00000 0.00000 0.00000
	CHANNELS 6 Xposition Yposition Zposition Zrotation Yrotation Xrotation 
	JOINT LHipJoint
	{
		OFFSET 0 0 0
		CHANNELS 3 Zrotation Yrotation Xrotation
		JOINT LeftUpLeg
		{
			OFFSET 1.57338 -1.94743 0.52196
			CHANNELS 3 Zrotation Yrotation Xrotation
			JOINT LeftLeg
			{
				OFFSET 2.60333 -7.15259 0.00000
				CHANNELS 3 Zrotation Yrotation Xrotation
				JOINT LeftFoot
				{
					OFFSET 2.77855 -7.63400 0.00000
					CHANNELS 3 Zrotation Yrotation Xrotation
					JOINT LeftToeBase
					{
						OFFSET 0.19847 -0.54529 2.28466
						CHANNELS 3 Zrotation Yrotation Xrotation
						End Site
						{
							OFFSET 0.00000 -0.00000 1.17993
						}
					}
				}
			}
		}
	}
	JOINT RHipJoint
	{
		OFFSET 0 0 0
		CHANNELS 3 Zrotation Yrotation Xrotation
		JOINT RightUpLeg
		{
			OFFSET -1.61527 -1.94743 0.52196
			CHANNELS 3 Zrotation Yrotation Xrotation
			JOINT RightLeg
			{
				OFFSET -2.53829 -6.97390 0.00000
				CHANNELS 3 Zrotation Yrotation Xrotation
				JOINT RightFoot
				{
					OFFSET -2.80762 -7.71387 0.00000
					CHANNELS 3 Zrotation Yrotation Xrotation
					JOINT RightToeBase
					{
						OFFSET -0.30536 -0.83898 2.28801
						CHANNELS 3 Zrotation Yrotation Xrotation
						End Site
						{
							OFFSET -0.00000 -0.00000 1.21323
						}
					}
				}
			}
		}
	}
	JOINT LowerBack
	{
		OFFSET 0 0 0
		CHANNELS 3 Zrotation Yrotation Xrotation
		JOINT Spine
		{
			OFFSET -0.04381 1.99497 -0.19778
			CHANNELS 3 Zrotation Yrotation Xrotation
			JOINT Spine1
			{
				OFFSET -0.01959 2.01295 -0.04372
				CHANNELS 3 Zrotation Yrotation Xrotation
				JOINT Neck
				{
					OFFSET 0 0 0
					CHANNELS 3 Zrotation Yrotation Xrotation
					JOINT Neck1
					{
						OFFSET -0.05459 1.76913 0.09708
						CHANNELS 3 Zrotation Yrotation Xrotation
						JOINT Head
						{
							OFFSET 0.09461 1.77368 -0.11172
							CHANNELS 3 Zrotation Yrotation Xrotation
							End Site
							{
								OFFSET 0.03812 1.78157 -0.04834
							}
						}
					}
				}
				JOINT LeftShoulder
				{
					OFFSET 0 0 0
					CHANNELS 3 Zrotation Yrotation Xrotation
					JOINT LeftArm
					{
						OFFSET 3.50922 1.24034 -0.28866
						CHANNELS 3 Zrotation Yrotation Xrotation
						JOINT LeftForeArm
						{
							OFFSET 5.40188 -0.00000 0.00000
							CHANNELS 3 Zrotation Yrotation Xrotation
							JOINT LeftHand
							{
								OFFSET 3.68559 -0.00000 0.00000
								CHANNELS 3 Zrotation Yrotation Xrotation
								JOINT LeftFingerBase
								{
									OFFSET 0 0 0
									CHANNELS 3 Zrotation Yrotation Xrotation
									JOINT LeftHandIndex1
									{
										OFFSET 0.61753 -0.00000 0.00000
										CHANNELS 3 Zrotation Yrotation Xrotation
										End Site
										{
											OFFSET 0.49787 -0.00000 0.00000
										}
									}
								}
								JOINT LThumb
								{
									OFFSET 0 0 0
									CHANNELS 3 Zrotation Yrotation Xrotation
									End Site
									{
										OFFSET 0.50547 -0.00000 0.50547
									}
								}
							}
						}
					}
				}
				JOINT RightShoulder
				{
					OFFSET 0 0 0
					CHANNELS 3 Zrotation Yrotation Xrotation
					JOINT RightArm
					{
						OFFSET -2.95373 1.39649 -0.27346
						CHANNELS 3 Zrotation Yrotation Xrotation
						JOINT RightForeArm
						{
							OFFSET -6.10670 -0.00000 -0.00000
							CHANNELS 3 Zrotation Yrotation Xrotation
							JOINT RightHand
							{
								OFFSET -3.63052 -0.00000 0.00000
								CHANNELS 3 Zrotation Yrotation Xrotation
								JOINT RightFingerBase
								{
									OFFSET 0 0 0
									CHANNELS 3 Zrotation Yrotation Xrotation
									JOINT RightHandIndex1
									{
										OFFSET -0.58385 -0.00000 0.00000
										CHANNELS 3 Zrotation Yrotation Xrotation
										End Site
										{
											OFFSET -0.47071 -0.00000 0.00000
										}
									}
								}
								JOINT RThumb
								{
									OFFSET 0 0 0
									CHANNELS 3 Zrotation Yrotation Xrotation
									End Site
									{
										OFFSET -0.47790 -0.00000 0.47790
									}
								}
							}
						}
					}
				}
			}
		}
	}
}
MOTION
Frames: 10
Frame Time: .0083333
0.4769 29.6350 -9.3437 177.4320 -44.4580 -179.1620 0.0000 0.0000 0.0000 -22.1622 18.8390 -25.3392 4.7926 13.1463 39.9186 1.4110 13.3145 -30.7247 0.0182 -0.8719 -2.3963 0.0000 0.0000 0.0000 24.5771 8.5537 -3.2162 -2.5884 -9.9969 28.9667 -1.4889 -17.6186 -35.0634 -0.1189 -2.2231 6.1227 -1.7268 2.1674 8.1229 -1.5099 2.6012 1.2047 -0.8718 1.2724 -3.3104 -5.2442 2.0719 -8.8763 6.7127 2.8293 6.8438 3.0448 1.5746 3.3071 -0.0000 0.0000 0.0000 -87.9118 0.8000 9.8598 13.5753 -22.1242 -2.6660 -0.0000 -0.0000 0.5445 23.8648 19.2862 8.3133 -7.1250 0.0000 -0.0000 -4.4536 50.8657 -0.6448 -0.0000 0.0000 0.0000 80.3410 -0.5176 36.8370 -20.2102 30.8947 -5.6389 0.0000 0.0000 14.5057 -25.3080 5.4206 -2.5577 7.1250 -0.0000 -0.0000 1.0301 -23.9878 0.5224
0.4619 29.6280 -9.3522 177.7430 -45.3818 -179.4550 0.0000 0.0000 0.0000 -22.1403 19.1543 -25.4505 4.7502 13.0968 39.7321 1.2423 13.7177 -29.9802 0.0779 -1.8002 -4.9539 0.0000 0.0000 0.0000 24.8983 8.1591 -3.0720 -2.5762 -9.9752 28.8965 -1.5017 -18.0144 -35.5062 -0.1184 -2.2181 6.1087 -1.5205 2.1234 8.1153 -1.4670 2.5663 1.1312 -0.9407 1.2554 -3.3752 -5.2288 2.0767 -8.8869 6.7262 2.8209 7.1277 3.0504 1.5716 3.3949 -0.0000 0.0000 0.0000 -87.9373 0.8401 9.3591 13.3152 -21.7473 -2.5689 -0.0000 -0.0000 1.0689 24.1654 19.6921 8.5977 -7.1250 0.0000 -0.0000 -4.2593 51.3498 -0.6672 -0.0000 0.0000 0.0000 80.3601 -0.4847 36.6515 -20.1745 30.8520 -5.6206 0.0000 0.0000 14.3502 -25.5121 5.3425 -2.5443 7.1250 -0.0000 -0.0000 0.8763 -24.0640 0.4429
0.4444 29.6211 -9.3545 178.1290 -46.3220 -179.7620 0.0000 0.0000 0.0000 -22.0746 19.0407 -25.4099 4.7047 13.0433 39.5309 1.1999 13.8544 -29.8226 0.0928 -1.9651 -5.4091 0.0000 0.0000 0.0000 25.2312 7.7566 -2.9845 -2.5579 -9.9423 28.7902 -1.4709 -18.5829 -35.8813 -0.1133 -2.1701 5.9759 -1.2177 2.0481 8.0449 -1.3928 2.5023 1.0783 -1.0251 1.2230 -3.3810 -5.2999 2.0968 -8.9317 6.6464 2.8568 7.3816 3.0440 1.5848 3.4767 0.0000 -0.0000 0.0000 -87.9984 0.9495 9.2215 13.1666 -21.5308 -2.5141 -0.0000 -0.0000 1.1523 24.8560 20.4337 9.1870 -7.1250 0.0000 -0.0000 -3.7592 52.2645 -0.6730 0.0000 -0.0000 0.0000 80.2453 -0.4583 36.5295 -20.2469 30.9387 -5.6577 0.0000 0.0000 14.0570 -25.3472 5.4631 -2.5823 7.1250 -0.0000 -0.0000 1.0020 -23.9389 0.5093
0.4240 29.6184 -9.3542 178.5230 -47.1684 -180.1130 0.0000 0.0000 0.0000 -21.9901 18.6405 -25.1999 4.6622 12.9929 39.3421 1.2091 13.9807 -29.9986 0.0710 -1.7189 -4.7294 0.0000 0.0000 0.0000 25.5652 7.5100 -2.7858 -2.5330 -9.8977 28.6462 -1.4335 -19.1243 -36.2052 -0.0988 -2.0275 5.5816 -0.9264 1.9982 7.9836 -1.3101 2.4699 1.0555 -1.0975 1.2058 -3.3618 -5.3251 2.0875 -9.0610 6.5038 2.8552 7.6974 3.0114 1.5786 3.5953 0.0000 -0.0000 0.0000 -88.0873 0.9864 9.0559 12.9960 -21.2814 -2.4518 -0.0000 -0.0000 1.0344 25.1472 20.7634 9.4486 -7.1250 0.0000 -0.0000 -3.5511 52.6708 -0.6710 0.0000 -0.0000 0.0000 80.1600 -0.4401 36.1604 -20.3653 31.0799 -5.7187 0.0000 0.0000 13.9842 -25.2171 5.6656 -2.6618 7.1250 -0.0000 -0.0000 1.1038 -23.7221 0.5666
0.4081 29.6150 -9.3561 178.7200 -47.9188 -180.3660 0.0000 0.0000 0.0000 -22.0257 18.3616 -24.9836 4.6153 12.9371 39.1333 1.2355 14.1405 -30.3178 0.0777 -1.7976 -4.9468 0.0000 0.0000 0.0000 25.7900 7.3976 -2.5062 -2.5048 -9.8466 28.4812 -1.3761 -19.6598 -36.4282 -0.0875 -1.9081 5.2517 -0.9107 1.9962 7.9871 -1.2512 2.4727 1.0264 -1.0467 1.2082 -3.3958 -5.3137 2.0678 -9.0918 6.4024 2.8296 7.9277 2.9812 1.5614 3.6734 -0.0000 0.0000 0.0000 -88.1531 0.9086 8.5488 12.6942 -20.8375 -2.3434 -0.0000 -0.0000 1.2662 25.5816 21.0659 9.7635 -7.1250 0.0000 -0.0000 -3.1870 53.0768 -0.6338 -0.0000 0.0000 0.0000 80.1366 -0.3337 35.8008 -20.4187 31.1435 -5.7463 0.0000 0.0000 13.8758 -25.1690 5.5450 -2.5998 7.1250 -0.0000 -0.0000 1.1364 -23.8575 0.5798
0.3939 29.6104 -9.3585 179.0590 -48.6744 -180.6940 0.0000 0.0000 0.0000 -21.9268 18.0507 -24.7728 4.5690 12.8814 38.9261 1.2760 14.5123 -30.9189 0.1033 -2.0723 -5.7054 0.0000 0.0000 0.0000 26.1327 7.3590 -2.2139 -2.4730 -9.7886 28.2948 -1.3834 -20.0169 -36.8221 -0.0935 -1.9718 5.4276 -0.8325 2.0227 7.9393 -1.1612 2.5218 1.0079 -1.0014 1.2335 -3.3885 -5.3972 2.0226 -9.0524 6.4000 2.7757 8.0038 2.9918 1.5315 3.6920 0.0000 -0.0000 0.0000 -88.2144 0.7215 7.9829 12.3093 -20.2669 -2.2083 -0.0000 -0.0000 1.7266 26.0962 21.2115 10.0496 -7.1250 0.0000 -0.0000 -2.6938 53.3319 -0.5524 0.0000 -0.0000 0.0000 80.0967 -0.1939 35.3939 -20.4341 31.1618 -5.7543 0.0000 0.0000 13.9077 -25.3136 5.6373 -2.6602 7.1250 -0.0000 -0.0000 1.0314 -23.7484 0.5288
0.3711 29.6069 -9.3647 179.4430 -49.6551 -181.0360 0.0000 0.0000 0.0000 -21.7548 17.5064 -24.4162 4.5153 12.8162 38.6843 1.3866 14.7146 -31.7972 0.0639 -1.6312 -4.4874 0.0000 0.0000 0.0000 26.4556 7.0591 -1.9913 -2.4442 -9.7358 28.1252 -1.4969 -20.0064 -37.3982 -0.1169 -2.2046 6.0715 -0.7256 1.9739 7.7235 -1.0263 2.4783 1.0297 -0.9084 1.2133 -3.2474 -5.4658 1.9652 -9.1258 6.3700 2.7066 8.2046 2.9946 1.4945 3.7686 -0.0000 0.0000 0.0000 -88.4234 0.4949 7.2048 11.9242 -19.6909 -2.0767 -0.0000 -0.0000 2.5393 26.4476 21.4362 10.3037 -7.1250 0.0000 -0.0000 -2.3882 53.6425 -0.5077 -0.0000 0.0000 0.0000 79.9065 -0.1500 35.0779 -20.5320 31.2780 -5.8050 0.0000 0.0000 13.8744 -25.6855 5.4864 -2.6328 7.1250 -0.0000 -0.0000 0.7513 -23.8961 0.3826
0.3404 29.6005 -9.3737 179.7830 -50.8015 -181.3960 0.0000 0.0000 0.0000 -21.5784 16.9311 -23.8946 4.4405 12.7246 38.3462 1.6703 13.8789 -32.7963 0.0030 -0.3523 -0.9680 0.0000 0.0000 0.0000 26.6744 6.4142 -1.8453 -2.4246 -9.6995 28.0089 -1.5684 -19.9127 -37.6708 -0.1398 -2.4094 6.6386 -0.6775 1.8110 7.4763 -0.8814 2.2779 1.0626 -0.7557 1.1157 -3.0812 -5.5870 1.9640 -9.2826 6.3828 2.7144 8.5397 3.0266 1.4966 3.8937 0.0000 0.0000 0.0000 -88.7075 0.2781 5.7798 11.4616 -18.9923 -1.9235 -0.0000 -0.0000 3.9125 26.5044 21.2009 10.2229 -7.1250 0.0000 -0.0000 -2.2668 53.3999 -0.4685 0.0000 0.0000 0.0000 79.6373 -0.1129 34.9953 -20.6596 31.4289 -5.8714 0.0000 0.0000 13.4443 -25.7752 5.4799 -2.6402 7.1250 -0.0000 -0.0000 0.6844 -23.8988 0.3485
0.3183 29.5917 -9.3841 179.9790 -51.7749 -181.6720 0.0000 0.0000 0.0000 -21.4793 16.4169 -23.3652 4.3478 12.6093 37.9231 1.7164 13.6164 -32.8539 0.0020 -0.2880 -0.7913 0.0000 0.0000 0.0000 26.8690 6.1154 -1.6013 -2.4122 -9.6764 27.9351 -1.5612 -20.2684 -37.9789 -0.1511 -2.5052 6.9042 -0.8289 1.7208 7.3312 -0.7910 2.1525 1.0868 -0.5600 1.0561 -2.9852 -5.7809 1.9811 -9.5159 6.5284 2.7442 8.9380 3.1154 1.5147 4.0463 -0.0000 -0.0000 0.0000 -88.9477 -0.1043 3.2745 10.8743 -18.0953 -1.7367 -0.0000 -0.0000 6.4998 26.1998 20.4876 9.7717 -7.1250 0.0000 -0.0000 -2.3997 52.5719 -0.4474 -0.0000 -0.0000 0.0000 79.5071 0.0189 34.8334 -20.7007 31.4773 -5.8929 0.0000 0.0000 13.1030 -25.5977 5.4905 -2.6245 7.1250 -0.0000 -0.0000 0.8166 -23.8961 0.4159
0.2980 29.5895 -9.3923 179.4740 -52.6057 -181.2920 0.0000 0.0000 0.0000 -21.8932 15.8310 -22.8872 4.2403 12.4735 37.4284 1.5458 14.3286 -32.4308 0.0425 -1.3303 -3.6580 0.0000 0.0000 0.0000 26.5689 6.0422 -1.4828 -2.4152 -9.6820 27.9531 -1.5613 -20.6490 -38.3509 -0.1612 -2.5871 7.1312 -1.3752 1.7561 7.1427 -0.8821 2.1568 1.0592 -0.3428 1.0635 -2.9254 -6.0299 2.0545 -9.5937 6.9220 2.8243 9.2486 3.2892 1.5666 4.1381 0.0000 -0.0000 0.0000 -88.8763 -0.0522 4.0035 10.7385 -17.8864 -1.6947 -0.0000 -0.0000 4.9312 27.9008 21.2679 10.8720 -7.1250 0.0000 -0.0000 -0.8217 53.7483 -0.1767 0.0000 -0.0000 0.0000 79.5240 0.0521 34.5194 -20.7417 31.5256 -5.9143 0.0000 0.0000 12.9652 -25.8034 5.1471 -2.4837 7.1250 -0.0000 -0.0000 0.6542 -24.2663 0.3276
